<svg width="16" height="16" viewBox="0 0 16 16" fill="none" xmlns="http://www.w3.org/2000/svg">
<path d="M15.75 8C15.75 9.39583 15.3958 10.6875 14.6875 11.875C14 13.0625 13.0625 14 11.875 14.6875C10.6875 15.3958 9.39583 15.75 8 15.75C7.10417 15.75 6.23958 15.5938 5.40625 15.2812C4.57292 14.9896 3.8125 14.5729 3.125 14.0312C2.95833 13.8854 2.86458 13.7083 2.84375 13.5C2.84375 13.2708 2.92708 13.0729 3.09375 12.9062L3.4375 12.5625C3.5625 12.4375 3.71875 12.375 3.90625 12.375C4.11458 12.3542 4.29167 12.3958 4.4375 12.5C5.47917 13.3333 6.66667 13.75 8 13.75C9.04167 13.75 10 13.5 10.875 13C11.7708 12.4792 12.4688 11.7812 12.9688 10.9062C13.4896 10.0104 13.75 9.04167 13.75 8C13.75 6.95833 13.4896 6 12.9688 5.125C12.4688 4.22917 11.7708 3.53125 10.875 3.03125C10 2.51042 9.04167 2.25 8 2.25C7.25 2.25 6.53125 2.38542 5.84375 2.65625C5.17708 2.92708 4.58333 3.3125 4.0625 3.8125L5.65625 5.40625C5.80208 5.55208 5.83333 5.72917 5.75 5.9375C5.66667 6.14583 5.51042 6.25 5.28125 6.25H0.75C0.604167 6.25 0.479167 6.20833 0.375 6.125C0.291667 6.02083 0.25 5.89583 0.25 5.75V1.21875C0.25 0.989583 0.354167 0.833333 0.5625 0.75C0.770833 0.666667 0.947917 0.697917 1.09375 0.84375L2.65625 2.40625C3.36458 1.71875 4.17708 1.1875 5.09375 0.8125C6.01042 0.4375 6.97917 0.25 8 0.25C9.39583 0.25 10.6875 0.604167 11.875 1.3125C13.0625 2 14 2.9375 14.6875 4.125C15.3958 5.29167 15.75 6.58333 15.75 8ZM10.0938 10.4375L10.4062 10.0625C10.5312 9.89583 10.5833 9.70833 10.5625 9.5C10.5417 9.29167 10.4479 9.125 10.2812 9L9 8V4.75C9 4.54167 8.92708 4.36458 8.78125 4.21875C8.63542 4.07292 8.45833 4 8.25 4H7.75C7.54167 4 7.36458 4.07292 7.21875 4.21875C7.07292 4.36458 7 4.54167 7 4.75V9L9.03125 10.5938C9.19792 10.7188 9.38542 10.7708 9.59375 10.75C9.80208 10.7083 9.96875 10.6042 10.0938 10.4375Z" fill="#1F72AD"/>
</svg>
