<svg width="9" height="11" viewBox="0 0 9 11" fill="none" xmlns="http://www.w3.org/2000/svg">
<path d="M0 1.89062V1.34375C0 1.21354 0.0455729 1.10286 0.136719 1.01172C0.227865 0.920573 0.338542 0.875 0.46875 0.875H2.65625L2.83203 0.503906C2.87109 0.425781 2.92969 0.367188 3.00781 0.328125C3.08594 0.276042 3.17057 0.25 3.26172 0.25H5.48828C5.57943 0.25 5.66406 0.276042 5.74219 0.328125C5.82031 0.367188 5.87891 0.425781 5.91797 0.503906L6.09375 0.875H8.28125C8.41146 0.875 8.52214 0.920573 8.61328 1.01172C8.70443 1.10286 8.75 1.21354 8.75 1.34375V1.89062C8.75 1.95573 8.72396 2.01432 8.67188 2.06641C8.63281 2.10547 8.58073 2.125 8.51562 2.125H0.234375C0.169271 2.125 0.110677 2.10547 0.0585938 2.06641C0.0195312 2.01432 0 1.95573 0 1.89062ZM8.10547 3.00391L7.71484 9.37109C7.70182 9.61849 7.60417 9.82682 7.42188 9.99609C7.23958 10.1654 7.02474 10.25 6.77734 10.25H1.97266C1.72526 10.25 1.51042 10.1654 1.32812 9.99609C1.14583 9.82682 1.04818 9.61849 1.03516 9.37109L0.644531 3.00391C0.644531 2.9388 0.664062 2.88021 0.703125 2.82812C0.755208 2.77604 0.813802 2.75 0.878906 2.75H7.87109C7.9362 2.75 7.98828 2.77604 8.02734 2.82812C8.07943 2.88021 8.10547 2.9388 8.10547 3.00391Z" fill="#9D0000"/>
</svg>
