<svg width="17" height="17" viewBox="0 0 17 17" fill="none" xmlns="http://www.w3.org/2000/svg">
<path d="M10.0938 2.90625L14.0938 6.90625L5.40625 15.5938L1.84375 16C1.59375 16.0208 1.38542 15.9479 1.21875 15.7812C1.05208 15.6146 0.979167 15.4062 1 15.1562L1.40625 11.5938L10.0938 2.90625ZM16.5625 2.3125L14.6875 0.4375C14.3958 0.145833 14.0417 0 13.625 0C13.2083 0 12.8542 0.145833 12.5625 0.4375L10.7812 2.21875L14.7812 6.21875L16.5625 4.4375C16.8542 4.14583 17 3.79167 17 3.375C17 2.95833 16.8542 2.60417 16.5625 2.3125Z" fill="#1F72AD"/>
</svg>
