<svg width="16" height="16" viewBox="0 0 16 16" fill="none" xmlns="http://www.w3.org/2000/svg">
<path d="M10.2188 5.78125C10.8229 6.40625 11.2292 7.125 11.4375 7.9375C11.6458 8.75 11.6458 9.5625 11.4375 10.375C11.2292 11.1875 10.8229 11.8958 10.2188 12.5L8.09375 14.625C7.48958 15.2292 6.78125 15.6354 5.96875 15.8438C5.15625 16.0521 4.34375 16.0521 3.53125 15.8438C2.71875 15.6354 2 15.2188 1.375 14.5938C0.770833 13.9896 0.364583 13.2812 0.15625 12.4688C-0.0520833 11.6562 -0.0520833 10.8438 0.15625 10.0312C0.364583 9.21875 0.770833 8.51042 1.375 7.90625L2.5625 6.71875C2.70833 6.57292 2.875 6.54167 3.0625 6.625C3.27083 6.70833 3.38542 6.85417 3.40625 7.0625C3.42708 7.625 3.53125 8.17708 3.71875 8.71875C3.78125 8.90625 3.73958 9.07292 3.59375 9.21875L3.1875 9.65625C2.75 10.0938 2.52083 10.625 2.5 11.25C2.5 11.8542 2.71875 12.3854 3.15625 12.8438C3.59375 13.2812 4.125 13.5 4.75 13.5C5.375 13.5 5.90625 13.2812 6.34375 12.8438L8.4375 10.75C8.875 10.3125 9.09375 9.78125 9.09375 9.15625C9.09375 8.53125 8.875 8 8.4375 7.5625C8.33333 7.45833 8.21875 7.36458 8.09375 7.28125C7.96875 7.19792 7.90625 7.07292 7.90625 6.90625C7.88542 6.53125 8 6.21875 8.25 5.96875L8.9375 5.3125C9.02083 5.22917 9.11458 5.1875 9.21875 5.1875C9.34375 5.16667 9.45833 5.1875 9.5625 5.25C9.79167 5.41667 10.0104 5.59375 10.2188 5.78125ZM14.625 1.375C14 0.770833 13.2812 0.364583 12.4688 0.15625C11.6562 -0.0520833 10.8438 -0.0520833 10.0312 0.15625C9.21875 0.364583 8.51042 0.770833 7.90625 1.375L5.78125 3.5C5.17708 4.10417 4.77083 4.8125 4.5625 5.625C4.35417 6.4375 4.35417 7.25 4.5625 8.0625C4.77083 8.875 5.17708 9.59375 5.78125 10.2188C5.98958 10.4062 6.20833 10.5833 6.4375 10.75C6.54167 10.8125 6.64583 10.8438 6.75 10.8438C6.875 10.8229 6.97917 10.7708 7.0625 10.6875L7.75 10.0312C8 9.78125 8.11458 9.46875 8.09375 9.09375C8.09375 8.92708 8.03125 8.80208 7.90625 8.71875C7.78125 8.63542 7.66667 8.54167 7.5625 8.4375C7.125 8 6.90625 7.46875 6.90625 6.84375C6.90625 6.21875 7.125 5.6875 7.5625 5.25L9.65625 3.15625C10.0938 2.71875 10.625 2.5 11.25 2.5C11.875 2.5 12.4062 2.72917 12.8438 3.1875C13.2812 3.625 13.4896 4.15625 13.4688 4.78125C13.4688 5.38542 13.25 5.90625 12.8125 6.34375L12.4062 6.78125C12.2604 6.92708 12.2188 7.09375 12.2812 7.28125C12.4688 7.82292 12.5729 8.375 12.5938 8.9375C12.6146 9.14583 12.7188 9.29167 12.9062 9.375C13.1146 9.45833 13.2917 9.42708 13.4375 9.28125L14.625 8.09375C15.2292 7.48958 15.6354 6.78125 15.8438 5.96875C16.0521 5.15625 16.0521 4.34375 15.8438 3.53125C15.6354 2.71875 15.2292 2 14.625 1.375Z" fill="#1F72AD"/>
</svg>
