<svg width="583" height="600" viewBox="0 0 583 600" fill="none" xmlns="http://www.w3.org/2000/svg">
<path d="M380.5 599.5H261.5C261.5 599.5 296.5 468.5 263 408C224.5 338.47 140 383 140 383C140 383 152.5 363 188 355C213 348.5 228.404 353.98 231 348.5C235.5 339 209.5 311 201.5 270C194.407 233.646 206.5 203 206.5 203C206.5 203 206.207 248 224.5 285.5C242.305 322 249.5 319.5 276.5 355C292.893 376.554 294.5 400.5 294.5 400.5C294.5 400.5 331 337.5 331 253.5C331 162.5 283.5 114 283.5 114C283.5 114 340 140.5 347 196.5C347 196.5 367 192 380.5 144.5C380.5 144.5 375.299 185.058 362.5 207C348.5 231 350 270 351 300.5C363.5 281 381.865 275.031 404.5 263.5C431 250 443.5 231 453.5 206C453.5 206 454.625 225 439 250C426.5 270 393.5 305.5 393.5 305.5L434.5 318.5C413.5 317 393.5 315.793 375 326C358.688 335 347 354 347 383C384.5 395 414 382.5 442 369C465.5 357.67 495.5 331 511.5 295C512.167 297.5 510.2 310.1 507 318.5C503.8 326.9 495.333 340.833 490.5 349L500 350.5C495 356 486.1 360.6 468.5 371C446.5 384 430.5 393 401 402C371.949 410.863 344 431 341.5 480.5C339.5 520.1 366.667 576.333 380.5 599.5Z" fill="#4A1700"/>
<path d="M225.884 250.93C223.569 258.471 227.427 265.973 228.584 276.003C234.37 269.831 242.785 267.019 245.942 258.644C249.258 249.85 245.942 241.286 243.628 235.5C239.384 241.286 228.198 243.389 225.884 250.93Z" fill="#41B883"/>
<path d="M255.417 222.225C266.356 213.886 268.507 199.334 277.051 183.943C262.582 186.816 247.8 182.256 234.82 190.92C221.189 200.019 217.193 215.525 214.598 226.076C226.488 222.184 244.479 230.563 255.417 222.225Z" fill="#41B883"/>
<path d="M444.01 186.106C437.831 174.455 424.401 170.145 411.176 159.657C411.632 173.793 405.008 187.065 411.176 200.699C417.653 215.016 431.697 221.22 441.274 225.324C439.45 213.468 450.189 197.757 444.01 186.106Z" fill="#41B883"/>
<path d="M496.784 229.66C508.675 222.229 512.233 207.661 522.359 192.846C507.402 194.395 492.828 188.371 478.834 195.939C464.139 203.888 458.618 219.249 454.988 229.714C467.424 226.886 484.894 237.09 496.784 229.66Z" fill="#41B883"/>
<path d="M215.564 74.2645C229.492 91.5196 253.039 94.336 278.225 107.418C272.949 84.2286 279.636 60.2014 265.092 39.671C249.819 18.1107 224.653 12.3637 207.532 8.65305C214.337 27.6407 201.637 57.0093 215.564 74.2645Z" fill="#41B883"/>
<path d="M205.337 124.013C219.121 121.73 227.973 109.691 242.962 99.9397C228.609 95.6368 217.508 84.5135 201.736 86.1177C185.174 87.8023 174.212 99.8196 166.864 108.057C179.388 110.217 191.552 126.296 205.337 124.013Z" fill="#41B883"/>
<path d="M275.208 160.399C284.699 164.584 295.09 160.704 308.365 160.739C301.198 152.232 298.824 140.81 288.375 135.396C277.402 129.711 265.709 132.72 257.796 134.85C264.698 141.283 265.718 156.214 275.208 160.399Z" fill="#41B883"/>
<path d="M515.686 240.58C508.681 254.624 513.801 270.608 512.797 290.669C526.168 280.445 543.601 277.675 552.532 262.27C561.911 246.093 558.2 228.204 555.547 216.093C545.331 226.063 522.69 226.536 515.686 240.58Z" fill="#41B883"/>
<path d="M552.129 353.584C537.237 348.634 522.136 355.961 502.135 357.802C514.145 369.594 519.35 386.46 535.862 393.125C553.203 400.125 570.388 393.923 582.003 389.586C570.689 380.88 567.022 358.534 552.129 353.584Z" fill="#41B883"/>
<path d="M150.572 202.101C158.838 215.349 175.06 219.323 191.552 230.612C189.838 213.952 196.558 197.726 188.14 182.135C179.299 165.763 162.195 159.603 150.543 155.551C153.683 169.404 142.305 188.853 150.572 202.101Z" fill="#41B883"/>
<path d="M168.002 412.551C168.11 402.576 160.745 394.857 155.751 383.107C150.943 392.664 141.743 399.087 140.912 410.375C140.038 422.229 147.126 431.428 152.004 437.618C155.079 429.081 167.894 422.526 168.002 412.551Z" fill="#41B883"/>
<path d="M111.378 439.931C124.6 426.832 127.688 407.635 138.352 385.976C121.172 392.802 103.902 390.13 88.2595 404.09C71.8322 418.75 66.5304 439.573 63.0691 453.717C77.2455 446.135 98.1562 453.03 111.378 439.931Z" fill="#41B883"/>
<path d="M431.777 329.212C424.096 322.847 413.462 323.707 401.189 320.187C405.585 329.94 404.781 341.131 413.026 348.885C421.685 357.028 433.294 357.316 441.174 357.424C436.479 349.659 439.458 335.576 431.777 329.212Z" fill="#41B883"/>
<path d="M441.512 270.119C450.447 258.859 465.695 256.906 481.949 248.29C478.655 263.35 483.119 278.888 473.803 292.274C464.02 306.332 447.738 310.193 436.661 312.691C440.969 300.346 432.578 281.379 441.512 270.119Z" fill="#41B883"/>
<path d="M390.715 135.59C384.368 143.337 384.157 147.162 383 156.034C396.887 152.176 408.073 148.482 413.859 143.304C421.187 136.747 424.66 132.118 422.731 117.074C413.859 128.261 399.125 125.323 390.715 135.59Z" fill="#41B883"/>
<path d="M344.536 136.863C339.051 128.583 339.108 124.676 338.607 115.574C351.483 120.364 361.816 124.82 366.942 130.449C373.435 137.58 376.409 142.507 373.579 157.699C365.936 145.761 351.804 147.835 344.536 136.863Z" fill="#41B883"/>
<path d="M519.457 324.238C509.209 334.976 508.868 340.277 507 352.574C529.422 347.228 547.484 342.107 556.826 334.931C568.659 325.842 574.265 319.426 571.151 298.574C556.826 314.079 533.037 310.008 519.457 324.238Z" fill="#41B883"/>
<path d="M498.192 415.274C504.733 426.388 509.11 427.984 519 432.574C519.954 412.756 520.038 396.589 516.273 387.105C511.504 375.092 507.471 368.877 489.173 366.274C498.733 381.934 489.524 400.545 498.192 415.274Z" fill="#41B883"/>
<path d="M96.1301 352.671C80.6573 353.917 75.8332 357.741 64 365.876C82.0356 377.029 97.2738 385.392 109.102 386.254C124.083 387.347 133.02 386.251 149.337 368.186C127.277 370.307 116.634 351.02 96.1301 352.671Z" fill="#41B883"/>
<path d="M285.155 74.5251C281.499 89.2648 283.698 94.6413 287.883 107.547C304.396 93.2323 317.317 80.8967 321.876 70.0419C327.65 56.2936 329.396 47.6948 316.971 28.3419C312.092 49.4348 290 54.9924 285.155 74.5251Z" fill="#41B883"/>
<path d="M138.948 315.244C147.566 325.211 151.677 336.845 151.677 346.489C147.049 344.56 124.676 338.577 118.89 331.831C109.957 321.414 116.575 317.173 106.16 297.5C120.047 299.429 129.425 304.231 138.948 315.244Z" fill="#41B883"/>
<path d="M162.44 226.27C177.816 234.336 189.319 246.851 195.16 259C188.976 258.982 161.106 263.102 150.749 257.617C134.759 249.149 139.363 240.357 116.16 221C132.378 216.194 145.45 217.358 162.44 226.27Z" fill="#41B883"/>
<path d="M396.475 87.2907C396.342 107.081 389.617 125.049 380.278 137C377.032 130.614 358.113 103.889 358.256 90.5337C358.476 69.914 369.894 70.3701 377.441 37C390.913 51.3762 396.621 65.4226 396.475 87.2907Z" fill="#41B883"/>
<path d="M479.554 161.71C477.827 181.425 469.675 198.792 459.403 209.952C456.683 203.325 439.98 175.162 441.198 161.861C443.08 141.326 454.424 142.702 464.637 110.048C476.905 125.464 481.463 139.925 479.554 161.71Z" fill="#41B883"/>
<path d="M319.665 286.744C323.714 297.739 323.548 308.813 320.606 316.982C317.387 313.977 300.806 302.281 298.104 294.852C293.932 283.382 300.671 281.75 298.103 262C308.939 267.747 315.19 274.594 319.665 286.744Z" fill="#41B883"/>
<path d="M205.304 148.549C197.216 166.664 195.773 186.005 199.16 201C204.707 196.595 232.69 180.497 238.101 168.249C246.455 149.339 236.065 144.753 243.16 111C225.165 118.216 214.241 128.532 205.304 148.549Z" fill="#41B883"/>
<path d="M458.961 331.648C469.508 331.285 479.393 327.553 486.197 322.564C482.948 320.987 469.602 311.638 462.482 311.91C451.489 312.33 451.196 318.206 433.069 322.59C440.094 329.316 447.307 332.049 458.961 331.648Z" fill="#41B883"/>
<path d="M40.2974 387.617C58.5567 380.042 77.2161 379.581 91.1603 384C86.3046 389.638 67.6641 418.419 55.325 423.479C36.2745 431.292 33.0965 420.023 0 425.682C8.98928 407.001 20.1207 395.988 40.2974 387.617Z" fill="#41B883"/>
</svg>
