<svg width="24" height="24" viewBox="0 0 24 24" fill="none" xmlns="http://www.w3.org/2000/svg">
<path d="M23.6718 20.7656L18.9843 16.0781C18.7656 15.8594 18.4999 15.75 18.1874 15.75H17.4374C18.8124 14 19.4999 12 19.4999 9.75C19.4999 7.96875 19.0624 6.34375 18.1874 4.875C17.3124 3.375 16.1249 2.1875 14.6249 1.3125C13.1562 0.4375 11.5312 0 9.74994 0C7.96869 0 6.32806 0.4375 4.82806 1.3125C3.35931 2.1875 2.18744 3.375 1.31244 4.875C0.437439 6.34375 -6.10352e-05 7.96875 -6.10352e-05 9.75C-6.10352e-05 11.5312 0.437439 13.1719 1.31244 14.6719C2.18744 16.1406 3.35931 17.3125 4.82806 18.1875C6.32806 19.0625 7.96869 19.5 9.74994 19.5C11.9999 19.5 13.9999 18.8125 15.7499 17.4375V18.1875C15.7499 18.5 15.8593 18.7656 16.0781 18.9844L20.7656 23.6719C20.9843 23.8906 21.2499 24 21.5624 24C21.8749 24 22.1406 23.8906 22.3593 23.6719L23.6718 22.3594C23.8906 22.1406 23.9999 21.875 23.9999 21.5625C23.9999 21.25 23.8906 20.9844 23.6718 20.7656ZM9.74994 15.75C8.65619 15.75 7.64056 15.4844 6.70306 14.9531C5.79681 14.4219 5.07806 13.7031 4.54681 12.7969C4.01556 11.8594 3.74994 10.8438 3.74994 9.75C3.74994 8.65625 4.01556 7.65625 4.54681 6.75C5.07806 5.8125 5.79681 5.07812 6.70306 4.54688C7.64056 4.01563 8.65619 3.75 9.74994 3.75C10.8437 3.75 11.8437 4.01563 12.7499 4.54688C13.6874 5.07812 14.4218 5.8125 14.9531 6.75C15.4843 7.65625 15.7499 8.65625 15.7499 9.75C15.7499 10.8438 15.4843 11.8594 14.9531 12.7969C14.4218 13.7031 13.6874 14.4219 12.7499 14.9531C11.8437 15.4844 10.8437 15.75 9.74994 15.75Z" fill="#BBBBBB"/>
</svg>
