<svg width="22" height="20" viewBox="0 0 22 20" fill="none" xmlns="http://www.w3.org/2000/svg">
<path d="M8.39518 0.00166661C7.62029 0.00166661 6.93496 0.376636 6.45531 0.859929C5.97655 1.34489 5.62634 1.9515 5.32046 2.60562C4.84702 3.61387 4.51366 4.73377 4.21222 5.78285C3.24849 6.04616 2.43016 6.37447 1.77408 6.77194C1.00451 7.2369 0.359958 7.88184 0.359958 8.75094C0.359958 9.50754 0.850246 10.1108 1.4682 10.5475C1.99395 10.9191 2.64206 11.2274 3.40808 11.4849C3.45063 11.6799 3.51979 11.8765 3.60135 12.0598C2.85395 12.4573 1.67035 13.2239 0.526638 14.6896L0 15.3929L0.748287 15.887L3.65632 17.7619L3.10309 18.8034L2.46474 20H19.5317L18.8934 18.8018L18.341 17.7602L21.2517 15.8853L22 15.3912L21.4742 14.6863C20.3305 13.2197 19.146 12.4531 18.3978 12.0565C18.4802 11.8715 18.5485 11.6757 18.5928 11.4815C19.3579 11.2249 20.006 10.9166 20.5318 10.545C21.1506 10.1083 21.64 9.50504 21.64 8.74844C21.64 7.87768 20.9981 7.2344 20.2277 6.76944C19.5698 6.37197 18.7524 6.0445 17.7896 5.77952C17.4589 4.69378 17.0918 3.5547 16.6263 2.55145C16.3249 1.90567 15.9924 1.30989 15.5181 0.833264C15.0429 0.358304 14.3691 0 13.6057 0C13.0888 0 12.6978 0.134989 12.2758 0.233314C11.8547 0.333306 11.4265 0.416632 11.0018 0.416632C10.1506 0.416632 9.43782 0 8.39784 0L8.39518 0.00166661ZM8.39518 1.66819C8.57693 1.66819 9.66833 2.08483 10.9991 2.08483C11.6641 2.08483 12.2581 1.95984 12.7173 1.85151C13.1766 1.74152 13.5268 1.66819 13.6039 1.66819C13.8078 1.66819 13.9612 1.72819 14.213 1.98067C14.4648 2.23315 14.7627 2.68311 15.0163 3.23056C15.4995 4.26631 15.8674 5.68036 16.2646 6.98025C16.2646 6.97858 16.3125 6.94025 16.1822 7.00525C15.9605 7.11941 15.4977 7.26606 14.9347 7.34522C13.8087 7.50354 12.2749 7.50104 11.0009 7.50104C9.73306 7.50104 8.1957 7.48438 7.06706 7.31772C6.50318 7.2369 6.04747 7.09441 5.82051 6.98025C5.75135 6.94525 5.72564 6.95859 5.70968 6.95525C5.70984 6.94609 5.70984 6.93692 5.70968 6.92776C5.71323 6.91942 5.70968 6.91109 5.70968 6.90276C5.71965 6.89408 5.7294 6.88519 5.73894 6.87609C5.80495 6.764 5.84257 6.63911 5.84888 6.51112C5.84901 6.50279 5.84901 6.49446 5.84888 6.48613C6.16805 5.37955 6.52269 4.20715 6.95712 3.28223C7.21689 2.72644 7.49794 2.27231 7.76038 2.00733C8.0237 1.74069 8.20368 1.66819 8.39873 1.66819H8.39518ZM4.07214 7.57937C4.27251 7.971 4.62537 8.28264 4.9871 8.46429C5.52349 8.73511 6.145 8.86176 6.81349 8.95925C8.15225 9.15424 9.71621 9.16757 10.9982 9.16757C12.2723 9.16757 13.8407 9.1734 15.183 8.98425C15.8515 8.89093 16.4685 8.7676 17.0093 8.49096C17.3729 8.30514 17.7248 7.976 17.9225 7.57937C18.4722 7.76269 18.9315 7.95767 19.2524 8.15182C19.7667 8.46513 19.8642 8.69761 19.8642 8.75177C19.8642 8.80177 19.8172 8.96009 19.4475 9.22173C19.0778 9.48254 18.4394 9.78335 17.6211 10.0283C15.9782 10.52 13.6137 10.8366 10.9982 10.8366C8.38277 10.8366 6.01556 10.52 4.37535 10.0283C3.55525 9.78419 2.9169 9.48338 2.54896 9.22173C2.17748 8.95925 2.13315 8.80093 2.13315 8.75094C2.13315 8.69594 2.20231 8.48846 2.71476 8.17765C3.03659 7.9835 3.51269 7.76935 4.07302 7.57937H4.07214ZM6.37197 12.1373C6.66454 12.1815 6.95357 12.2556 7.25856 12.2923C7.37382 13.0231 7.98203 13.6689 8.95196 13.7255C9.6967 13.7672 10.539 13.4355 10.6126 12.5006C10.7455 12.5023 10.8679 12.5006 11.0009 12.5006C11.1339 12.5006 11.258 12.5023 11.391 12.5006C11.4637 13.4355 12.306 13.7672 13.0525 13.7255C14.0206 13.6689 14.6271 13.0231 14.7423 12.2923C15.0482 12.2556 15.3363 12.1815 15.6289 12.1357L15.5447 12.6564C15.2716 14.0255 14.6191 15.2979 13.7981 16.1728C12.9798 17.0477 12.016 17.5144 11.0009 17.5002C9.95825 17.486 9.01491 17.0136 8.20279 16.1462C7.38889 15.2796 6.74877 14.0322 6.45619 12.6564L6.37374 12.1357L6.37197 12.1373ZM17.2053 13.3322C17.5351 13.5139 18.4022 14.0488 19.3952 15.0771L16.707 16.8211L16.0687 17.2127L16.402 17.8627L16.6503 18.3318H13.854C14.3238 18.0274 14.7515 17.6691 15.1271 17.2652C16.1024 16.2236 16.7584 14.8571 17.1219 13.3847C17.1521 13.3681 17.1751 13.3489 17.2053 13.3331V13.3322ZM4.76634 13.3572C4.80003 13.3772 4.83993 13.3922 4.87628 13.4105C5.25574 14.8646 5.90916 16.2128 6.87112 17.2377C7.27009 17.6627 7.73378 18.0293 8.22761 18.3318H5.34618L5.5962 17.8627L5.92867 17.2127L5.29387 16.8211L2.60571 15.0771C3.5455 14.1038 4.39929 13.5672 4.769 13.3581L4.76634 13.3572Z" fill="#9E9898"/>
</svg>
