<svg width="260" height="309" viewBox="0 0 260 309" fill="none" xmlns="http://www.w3.org/2000/svg">
<path d="M150.279 195.566C149.469 211.684 160.469 234.571 166.071 244C166.071 244 158.557 241.175 153.518 240.947C148.57 240.724 145.919 242.803 140.966 242.779C136.169 242.756 133.604 240.613 128.819 240.947C124.398 241.257 122.282 243.443 117.886 244C121.935 228.33 132.058 190.682 118.493 166.058C102.904 137.759 68.6885 155.883 68.6885 155.883C68.6885 155.883 73.7499 147.743 88.1245 144.487C98.2474 141.842 104.485 144.072 105.536 141.842C107.358 137.975 96.8301 126.579 93.5908 109.892C90.7186 95.0954 95.6154 82.6222 95.6154 82.6222C95.6154 82.6222 95.4969 100.937 102.904 116.2C110.113 131.056 113.027 130.038 123.96 144.487C130.597 153.26 131.248 163.006 131.248 163.006C131.248 163.006 146.027 137.364 146.027 103.176C146.027 66.1385 126.794 46.3987 126.794 46.3987C126.794 46.3987 149.672 57.1843 152.506 79.9767C152.506 79.9767 160.604 78.1451 166.071 58.8124C166.071 58.8124 163.965 75.3199 158.782 84.2502C153.113 94.0184 153.721 109.892 154.126 122.305C159.187 114.369 166.624 111.939 175.789 107.246C186.519 101.751 191.581 94.0184 195.63 83.8432C195.63 83.8432 196.085 91.5763 189.758 101.751C184.697 109.892 171.335 124.34 171.335 124.34L187.936 129.631C179.433 129.021 171.335 128.53 163.844 132.684C157.239 136.347 152.506 144.08 152.506 155.883C167.69 160.767 179.636 155.68 190.973 150.185C200.489 145.574 212.636 134.719 219.115 120.067C219.385 121.084 218.588 126.213 217.293 129.631C215.997 133.05 212.569 138.721 210.612 142.045L214.458 142.656C212.434 144.894 208.83 146.766 201.703 150.999C192.795 156.29 186.317 159.953 174.372 163.616C162.608 167.224 151.291 175.42 150.279 195.566Z" fill="#4A1700"/>
<path d="M103.464 102.13C102.527 105.199 104.089 108.253 104.557 112.335C106.9 109.823 110.307 108.678 111.586 105.27C112.928 101.69 111.586 98.2047 110.649 95.8498C108.931 98.2047 104.401 99.0604 103.464 102.13Z" fill="#2CA770"/>
<path d="M115.423 90.4466C119.852 87.0528 120.723 81.13 124.183 74.8658C118.324 76.0349 112.338 74.1792 107.082 77.7056C101.563 81.4089 99.9449 87.7197 98.8941 92.0143C103.709 90.43 110.993 93.8405 115.423 90.4466Z" fill="#2CA770"/>
<path d="M191.787 75.7461C189.285 71.004 183.847 69.25 178.492 64.981C178.676 70.7348 175.994 76.1366 178.492 81.6855C181.115 87.5127 186.801 90.0377 190.679 91.7082C189.94 86.8825 194.289 80.4883 191.787 75.7461Z" fill="#2CA770"/>
<path d="M213.156 93.4727C217.971 90.4483 219.411 84.5193 223.512 78.4894C217.455 79.1199 211.554 76.6679 205.888 79.7484C199.937 82.9833 197.702 89.2353 196.232 93.4947C201.268 92.3437 208.341 96.4971 213.156 93.4727Z" fill="#2CA770"/>
<path d="M99.2855 30.226C104.925 37.2489 114.46 38.3952 124.658 43.7195C122.521 34.2814 125.229 24.5022 119.34 16.1462C113.156 7.37106 102.966 5.03197 96.0331 3.52173C98.7884 11.2498 93.646 23.203 99.2855 30.226Z" fill="#2CA770"/>
<path d="M95.1441 50.4739C100.726 49.5448 104.31 44.6449 110.379 40.676C104.567 38.9246 100.072 34.3974 93.6863 35.0503C86.9798 35.7359 82.5413 40.627 79.5661 43.9796C84.6373 44.859 89.5626 51.4029 95.1441 50.4739Z" fill="#2CA770"/>
<path d="M123.436 65.2832C127.279 66.9865 131.487 65.4072 136.862 65.4215C133.96 61.9591 132.999 57.3106 128.768 55.107C124.325 52.7929 119.59 54.0177 116.386 54.8846C119.18 57.5028 119.594 63.5799 123.436 65.2832Z" fill="#2CA770"/>
<path d="M220.809 97.9173C217.973 103.633 220.047 110.139 219.64 118.304C225.054 114.143 232.113 113.015 235.729 106.745C239.527 100.161 238.024 92.8802 236.95 87.9509C232.813 92.0087 223.646 92.2014 220.809 97.9173Z" fill="#2CA770"/>
<path d="M235.566 143.911C229.536 141.896 223.421 144.878 215.323 145.627C220.186 150.427 222.293 157.291 228.979 160.004C236.001 162.853 242.959 160.329 247.662 158.564C243.081 155.02 241.596 145.925 235.566 143.911Z" fill="#2CA770"/>
<path d="M72.9689 82.2562C76.3162 87.6483 82.8845 89.2656 89.5625 93.8604C88.8685 87.0798 91.5897 80.4754 88.1808 74.1301C84.601 67.4665 77.6755 64.9593 72.9573 63.3102C74.2288 68.9484 69.6215 76.8642 72.9689 82.2562Z" fill="#2CA770"/>
<path d="M80.0267 167.911C80.0703 163.851 77.0883 160.709 75.0662 155.927C73.1192 159.817 69.3941 162.431 69.0574 167.025C68.7038 171.849 71.5735 175.594 73.5488 178.113C74.794 174.638 79.9831 171.971 80.0267 167.911Z" fill="#2CA770"/>
<path d="M57.0987 179.054C62.4524 173.723 63.7031 165.91 68.021 157.094C61.0644 159.873 54.0717 158.785 47.7377 164.467C41.086 170.434 38.9392 178.909 37.5377 184.665C43.278 181.579 51.745 184.386 57.0987 179.054Z" fill="#2CA770"/>
<path d="M186.833 133.991C183.723 131.4 179.417 131.75 174.448 130.318C176.228 134.287 175.903 138.842 179.241 141.998C182.747 145.312 187.448 145.43 190.639 145.473C188.738 142.313 189.943 136.581 186.833 133.991Z" fill="#2CA770"/>
<path d="M190.775 109.94C194.393 105.357 200.567 104.562 207.149 101.055C205.815 107.185 207.623 113.509 203.851 118.957C199.889 124.679 193.296 126.25 188.811 127.267C190.555 122.243 187.158 114.523 190.775 109.94Z" fill="#2CA770"/>
<path d="M170.207 55.1857C167.637 58.3388 167.551 59.8956 167.083 63.5066C172.706 61.9366 177.235 60.4328 179.578 58.3256C182.546 55.6567 183.952 53.7727 183.171 47.6498C179.578 52.2027 173.612 51.0072 170.207 55.1857Z" fill="#2CA770"/>
<path d="M151.508 55.7037C149.287 52.3337 149.31 50.7439 149.107 47.0393C154.321 48.9887 158.505 50.8024 160.581 53.0936C163.21 55.9956 164.414 58.001 163.268 64.1842C160.173 59.3256 154.451 60.1696 151.508 55.7037Z" fill="#2CA770"/>
<path d="M222.336 131.966C218.187 136.337 218.049 138.495 217.292 143.5C226.371 141.324 233.685 139.239 237.468 136.319C242.259 132.619 244.529 130.008 243.268 121.521C237.468 127.832 227.835 126.175 222.336 131.966Z" fill="#2CA770"/>
<path d="M213.726 169.019C216.375 173.542 218.147 174.192 222.151 176.06C222.538 167.994 222.572 161.414 221.047 157.554C219.116 152.664 217.483 150.135 210.074 149.076C213.945 155.449 210.216 163.024 213.726 169.019Z" fill="#2CA770"/>
<path d="M50.9246 143.539C44.6594 144.046 42.7061 145.602 37.9146 148.913C45.2175 153.453 51.3877 156.857 56.1771 157.208C62.2431 157.652 65.8617 157.206 72.4689 149.854C63.5364 150.717 59.2271 142.867 50.9246 143.539Z" fill="#2CA770"/>
<path d="M127.464 30.3321C125.984 36.3312 126.874 38.5195 128.568 43.7721C135.255 37.946 140.487 32.9253 142.333 28.5073C144.671 22.9117 145.378 19.412 140.347 11.5352C138.371 20.1201 129.426 22.3821 127.464 30.3321Z" fill="#2CA770"/>
<path d="M68.2623 128.306C71.7518 132.362 73.4166 137.098 73.4166 141.023C71.5423 140.238 62.4832 137.803 60.1404 135.057C56.5232 130.817 59.2032 129.091 54.986 121.084C60.6089 121.869 64.4064 123.824 68.2623 128.306Z" fill="#2CA770"/>
<path d="M77.7748 92.0932C84.0007 95.376 88.6584 100.47 91.0236 105.414C88.5193 105.407 77.2345 107.084 73.0408 104.852C66.5661 101.405 68.4303 97.8266 59.0352 89.9482C65.6018 87.9922 70.895 88.4657 77.7748 92.0932Z" fill="#2CA770"/>
<path d="M172.539 35.5277C172.485 43.5823 169.762 50.8954 165.981 55.7597C164.667 53.1607 157.006 42.2834 157.064 36.8476C157.153 28.4553 161.776 28.6409 164.832 15.0591C170.287 20.9103 172.598 26.6273 172.539 35.5277Z" fill="#2CA770"/>
<path d="M206.179 65.8167C205.48 73.8408 202.179 80.9094 198.02 85.4514C196.918 82.7544 190.155 71.2918 190.648 65.8784C191.41 57.5206 196.004 58.0803 200.139 44.7902C205.107 51.0644 206.952 56.95 206.179 65.8167Z" fill="#2CA770"/>
<path d="M141.437 116.706C143.077 121.181 143.01 125.689 141.819 129.013C140.515 127.79 133.801 123.03 132.707 120.006C131.018 115.338 133.746 114.674 132.707 106.635C137.094 108.975 139.625 111.761 141.437 116.706Z" fill="#2CA770"/>
<path d="M95.1307 60.4603C91.8559 67.8332 91.2718 75.7049 92.6432 81.8081C94.8893 80.0152 106.22 73.4634 108.411 68.4783C111.793 60.7817 107.587 58.9154 110.46 45.1775C103.173 48.1147 98.7495 52.3132 95.1307 60.4603Z" fill="#2CA770"/>
<path d="M197.841 134.983C202.111 134.835 206.114 133.316 208.869 131.285C207.553 130.644 202.149 126.838 199.266 126.949C194.815 127.12 194.697 129.511 187.357 131.296C190.201 134.034 193.122 135.146 197.841 134.983Z" fill="#2CA770"/>
<path d="M28.3171 157.762C35.7105 154.679 43.266 154.492 48.9123 156.29C46.9461 158.585 39.3983 170.299 34.402 172.358C26.6881 175.538 25.4013 170.952 12 173.255C15.6399 165.652 20.1472 161.169 28.3171 157.762Z" fill="#2CA770"/>
<path d="M6.384 287.176V258.904L2.496 258.376C2.304 257.8 2.304 257.224 2.496 256.648L9.072 256.792H28.464L28.512 267.928C27.808 268.056 27.216 268.056 26.736 267.928L24.48 259.24H11.52V273.4L19.2 273.256L20.304 268.552C20.784 268.424 21.376 268.424 22.08 268.552C21.952 270.344 21.888 272.408 21.888 274.744C21.888 276.888 21.936 278.968 22.032 280.984C21.456 281.176 20.88 281.176 20.304 280.984L19.248 275.992L11.52 275.848V292.888L15.888 293.368C16.016 293.848 16.016 294.44 15.888 295.144C13.872 295.048 11.6 295 9.072 295C7.184 295 4.896 295.032 2.208 295.096C2.016 294.52 2.016 293.944 2.208 293.368L6.192 292.792C6.32 291.576 6.384 289.704 6.384 287.176ZM34.0894 288.616C34.0894 290.28 34.3934 291.464 35.0014 292.168C35.6094 292.84 36.5694 293.176 37.8814 293.176C38.8414 293.176 39.8974 292.888 41.0494 292.312C42.2334 291.704 43.3214 290.84 44.3134 289.72V282.232C41.0174 282.424 38.4894 283.016 36.7294 284.008C34.9694 284.968 34.0894 286.504 34.0894 288.616ZM44.3134 280.504V278.056C44.3134 275.336 43.9934 273.368 43.3534 272.152C42.7454 270.904 41.7214 270.28 40.2814 270.28C38.8094 270.28 37.6254 270.76 36.7294 271.72C35.8334 272.648 35.2254 274.248 34.9054 276.52C33.8814 276.744 33.1294 276.856 32.6494 276.856C31.4014 276.856 30.6654 276.408 30.4414 275.512C30.4414 273.336 31.3854 271.608 33.2734 270.328C35.1614 269.048 37.5134 268.408 40.3294 268.408C43.4334 268.408 45.6254 269.048 46.9054 270.328C48.2174 271.576 48.8734 273.832 48.8734 277.096V290.632C48.8734 291.432 48.9214 292.12 49.0174 292.696L52.8094 293.176C52.9374 293.656 52.9374 294.264 52.8094 295C50.5374 295.096 48.1214 295.32 45.5614 295.672C45.3054 295.416 45.1454 295.096 45.0814 294.712L44.8414 291.4C42.1854 294.44 39.2254 295.96 35.9614 295.96C33.9454 295.96 32.3614 295.384 31.2094 294.232C30.0894 293.08 29.5294 291.528 29.5294 289.576C29.5294 286.632 30.8574 284.408 33.5134 282.904C36.2014 281.4 39.8014 280.6 44.3134 280.504ZM90.306 277.864C90.306 273.416 88.882 271.192 86.034 271.192C83.602 271.192 81.298 272.872 79.122 276.232V292.552L83.01 293.272C83.138 293.784 83.138 294.424 83.01 295.192C80.994 295.096 78.946 295.048 76.866 295.048C75.394 295.048 73.314 295.08 70.626 295.144C70.434 294.536 70.434 293.912 70.626 293.272L74.418 292.744C74.546 290.984 74.61 288.952 74.61 286.648V277.864C74.61 273.416 73.186 271.192 70.338 271.192C68.898 271.192 67.634 271.64 66.546 272.536C65.458 273.4 64.338 274.76 63.186 276.616V292.552L67.074 293.272C67.202 293.784 67.202 294.424 67.074 295.192C65.058 295.096 63.01 295.048 60.93 295.048C59.458 295.048 57.378 295.08 54.69 295.144C54.498 294.536 54.498 293.912 54.69 293.272L58.482 292.744C58.61 290.984 58.674 288.952 58.674 286.648V273.496C58.674 272.856 58.626 272.264 58.53 271.72L54.738 271.24C54.61 270.76 54.61 270.152 54.738 269.416C56.882 269.256 59.618 268.92 62.946 268.408C63.234 268.728 63.394 269.048 63.426 269.368C63.266 270.2 63.186 271.624 63.186 273.64C65.714 270.152 68.562 268.408 71.73 268.408C73.394 268.408 74.914 268.84 76.29 269.704C77.666 270.536 78.546 271.832 78.93 273.592C81.49 270.136 84.322 268.408 87.426 268.408C89.378 268.408 91.09 268.984 92.562 270.136C94.066 271.288 94.818 273.064 94.818 275.464V292.552L98.706 293.272C98.834 293.784 98.834 294.424 98.706 295.192C96.69 295.096 94.642 295.048 92.562 295.048C91.09 295.048 89.01 295.08 86.322 295.144C86.13 294.536 86.13 293.912 86.322 293.272L90.114 292.744C90.242 290.984 90.306 288.952 90.306 286.648V277.864ZM109.359 277.144V292.552L113.247 293.272C113.279 293.432 113.295 293.576 113.295 293.704C113.327 293.832 113.343 293.976 113.343 294.136C113.343 294.296 113.327 294.472 113.295 294.664C113.295 294.824 113.279 295 113.247 295.192C111.231 295.096 109.167 295.048 107.055 295.048C106.319 295.048 105.423 295.048 104.367 295.048C103.343 295.08 102.159 295.112 100.815 295.144C100.719 294.856 100.671 294.552 100.671 294.232C100.671 293.944 100.719 293.624 100.815 293.272L104.607 292.744C104.671 291.848 104.719 290.904 104.751 289.912C104.783 288.888 104.799 287.8 104.799 286.648V276.424C104.799 274.312 104.751 272.744 104.655 271.72L100.863 271.24C100.799 271.08 100.767 270.808 100.767 270.424C100.767 270.264 100.767 270.104 100.767 269.944C100.767 269.784 100.799 269.608 100.863 269.416C103.039 269.288 105.791 268.952 109.119 268.408C109.407 268.728 109.567 269.048 109.599 269.368C109.439 270.264 109.359 272.856 109.359 277.144ZM102.351 260.008C102.287 259.848 102.255 259.688 102.255 259.528C102.255 259.336 102.255 259.16 102.255 259C102.255 258.136 102.607 257.448 103.311 256.936C104.047 256.392 104.943 256.12 105.999 256.12C106.991 256.12 107.791 256.424 108.399 257.032C109.039 257.608 109.359 258.408 109.359 259.432C109.359 260.264 108.991 260.936 108.255 261.448C107.551 261.96 106.639 262.216 105.519 262.216C104.751 262.216 104.063 262.024 103.455 261.64C102.879 261.256 102.511 260.712 102.351 260.008ZM123.69 264.568V292.552L127.578 293.272C127.706 293.784 127.706 294.424 127.578 295.192C125.562 295.096 123.498 295.048 121.386 295.048C119.914 295.048 117.834 295.08 115.146 295.144C114.954 294.536 114.954 293.912 115.146 293.272L118.938 292.744C119.066 290.984 119.13 288.952 119.13 286.648V259.144L115.194 258.664C115.066 258.184 115.066 257.576 115.194 256.84C117.402 256.68 120.154 256.344 123.45 255.832C123.738 256.152 123.898 256.472 123.93 256.792C123.77 257.624 123.69 260.216 123.69 264.568ZM138.28 302.104L141.352 294.856L132.04 271.912L128.296 271.144C128.136 270.504 128.136 269.864 128.296 269.224C130.056 269.352 132.2 269.416 134.728 269.416C137 269.416 139.16 269.368 141.208 269.272C141.4 269.912 141.4 270.536 141.208 271.144L137.08 271.816L141.64 282.616C142.28 284.184 142.952 286.376 143.656 289.192H143.752C144.296 287.272 145.048 285.16 146.008 282.856L150.184 271.672L146.44 271.144C146.312 270.632 146.312 269.992 146.44 269.224C148.2 269.352 149.912 269.416 151.576 269.416C152.984 269.416 154.728 269.368 156.808 269.272C157 269.912 157 270.536 156.808 271.144L153.016 271.672L140.344 302.68C139.672 304.28 138.92 305.48 138.088 306.28C137.256 307.08 136.152 307.48 134.776 307.48C133.688 307.48 132.84 307.336 132.232 307.048C131.656 306.792 131.064 306.28 130.456 305.512C130.648 303.752 131.56 302.344 133.192 301.288C134.504 302.76 135.624 303.496 136.552 303.496C137.352 303.496 137.928 303.032 138.28 302.104ZM156.405 256.792H189.573L189.621 267.928C188.917 268.056 188.325 268.056 187.845 267.928L185.589 259.24H175.605V292.888L180.453 293.368C180.581 293.848 180.581 294.44 180.453 295.144C178.437 295.048 176.005 295 173.157 295C170.949 295 168.501 295.032 165.813 295.096C165.621 294.52 165.621 293.944 165.813 293.368L170.277 292.792C170.405 291.576 170.469 289.704 170.469 287.176V259.24H160.389L158.133 267.928C157.653 268.056 157.061 268.056 156.357 267.928L156.405 256.792ZM198.896 269.368L198.8 274.312C199.6 272.84 200.704 271.496 202.112 270.28C203.552 269.032 204.912 268.408 206.192 268.408C207.184 268.408 208.064 268.52 208.832 268.744C209.088 269.16 209.216 269.704 209.216 270.376C209.216 271.432 208.992 272.488 208.544 273.544C207.392 273.224 206.288 273.064 205.232 273.064C202.608 273.064 200.448 274.344 198.752 276.904L198.656 285.304V292.552L203.984 293.272C204.112 293.784 204.112 294.424 203.984 295.192C201.968 295.096 199.664 295.048 197.072 295.048C195.12 295.048 192.8 295.08 190.112 295.144C189.92 294.536 189.92 293.912 190.112 293.272L193.904 292.744C194.032 290.984 194.096 288.952 194.096 286.648V273.496C194.096 272.856 194.048 272.264 193.952 271.72L190.16 271.24C190.032 270.76 190.032 270.152 190.16 269.416C192.368 269.256 195.12 268.92 198.416 268.408C198.704 268.728 198.864 269.048 198.896 269.368ZM231.472 281.464H216.4C216.112 289.624 218.56 293.704 223.744 293.704C225.952 293.704 228.208 292.728 230.512 290.776C230.992 291.064 231.36 291.56 231.616 292.264C229.408 294.728 226.608 295.96 223.216 295.96C215.408 295.96 211.504 291.368 211.504 282.184C211.504 277.832 212.656 274.456 214.96 272.056C217.264 269.624 219.952 268.408 223.024 268.408C226.384 268.408 228.8 269.576 230.272 271.912C231.744 274.248 232.48 277.288 232.48 281.032C232.16 281.288 231.824 281.432 231.472 281.464ZM222.928 270.328C221.264 270.328 219.84 271.192 218.656 272.92C217.504 274.648 216.8 276.856 216.544 279.544H222.496C224.864 279.544 226.56 279.4 227.584 279.112C227.584 276.488 227.184 274.376 226.384 272.776C225.584 271.144 224.432 270.328 222.928 270.328ZM256.691 281.464H241.618C241.331 289.624 243.779 293.704 248.963 293.704C251.171 293.704 253.427 292.728 255.731 290.776C256.211 291.064 256.579 291.56 256.835 292.264C254.627 294.728 251.827 295.96 248.435 295.96C240.627 295.96 236.723 291.368 236.723 282.184C236.723 277.832 237.875 274.456 240.179 272.056C242.483 269.624 245.171 268.408 248.243 268.408C251.603 268.408 254.019 269.576 255.491 271.912C256.963 274.248 257.699 277.288 257.699 281.032C257.379 281.288 257.043 281.432 256.691 281.464ZM248.147 270.328C246.483 270.328 245.059 271.192 243.875 272.92C242.723 274.648 242.019 276.856 241.763 279.544H247.715C250.083 279.544 251.779 279.4 252.803 279.112C252.803 276.488 252.403 274.376 251.603 272.776C250.803 271.144 249.651 270.328 248.147 270.328Z" fill="#242121"/>
</svg>
