<svg width="189" height="195" viewBox="0 0 189 195" fill="none" xmlns="http://www.w3.org/2000/svg">
<path d="M110.74 156.293C110.092 169.174 118.901 187.465 123.387 195C123.387 195 117.369 192.742 113.334 192.561C109.372 192.382 107.249 194.043 103.282 194.024C99.4403 194.006 97.386 192.293 93.5536 192.561C90.0135 192.808 88.319 194.555 84.7982 195C88.0409 182.477 96.1478 152.39 85.2846 132.711C72.7999 110.095 45.3986 124.579 45.3986 124.579C45.3986 124.579 49.4521 118.073 60.9639 115.471C69.0708 113.357 74.0659 115.14 74.9077 113.357C76.367 110.267 67.9358 101.159 65.3416 87.8232C63.0414 75.9984 66.963 66.0301 66.963 66.0301C66.963 66.0301 66.8681 80.6673 72.7999 92.8649C78.5736 104.737 80.9068 103.924 89.6623 115.471C94.9783 122.482 95.4993 130.271 95.4993 130.271C95.4993 130.271 107.335 109.779 107.335 82.4562C107.335 52.8566 91.9322 37.0809 91.9322 37.0809C91.9322 37.0809 110.254 45.7006 112.524 63.9158C112.524 63.9158 119.009 62.4521 123.387 47.0017C123.387 47.0017 121.701 60.1942 117.55 67.3311C113.01 75.1376 113.497 87.8232 113.821 97.744C117.874 91.4012 123.83 89.4597 131.17 85.709C139.763 81.3178 143.816 75.1376 147.059 67.0059C147.059 67.0059 147.424 73.186 142.357 81.3178C138.304 87.8232 127.603 99.3703 127.603 99.3703L140.898 103.599C134.088 103.111 127.603 102.718 121.603 106.038C116.314 108.966 112.524 115.146 112.524 124.579C124.684 128.482 134.25 124.416 143.33 120.025C150.95 116.34 160.679 107.665 165.867 95.955C166.083 96.7682 165.446 100.867 164.408 103.599C163.37 106.331 160.625 110.863 159.057 113.52L162.138 114.008C160.517 115.797 157.631 117.293 151.923 120.676C144.789 124.904 139.601 127.832 130.035 130.759C120.614 133.642 111.551 140.192 110.74 156.293Z" fill="#4A1700"/>
<path d="M73.2487 81.6201C72.4981 84.073 73.749 86.5134 74.1243 89.7756C76.0005 87.7681 78.7292 86.8535 79.7531 84.1295C80.8283 81.2688 79.7531 78.4834 79.0026 76.6013C77.6267 78.4834 73.9992 79.1672 73.2487 81.6201Z" fill="#2CA770"/>
<path d="M82.8257 72.2832C86.3728 69.5709 87.0704 64.8376 89.8411 59.8314C85.1492 60.7657 80.3556 59.2826 76.1465 62.1009C71.7264 65.0605 70.4305 70.1039 69.5889 73.5361C73.4446 72.2699 79.2786 74.9956 82.8257 72.2832Z" fill="#2CA770"/>
<path d="M143.982 60.5349C141.978 56.7451 137.623 55.3433 133.335 51.9316C133.482 56.5299 131.334 60.847 133.335 65.2815C135.435 69.9385 139.989 71.9564 143.095 73.2915C142.503 69.4348 145.985 64.3247 143.982 60.5349Z" fill="#2CA770"/>
<path d="M161.095 74.7016C164.951 72.2846 166.105 67.5462 169.389 62.7273C164.538 63.2311 159.812 61.2716 155.275 63.7334C150.509 66.3187 148.719 71.3152 147.542 74.7192C151.574 73.7993 157.24 77.1186 161.095 74.7016Z" fill="#2CA770"/>
<path d="M69.9023 24.1561C74.4186 29.7687 82.0546 30.6848 90.2217 34.9399C88.5108 27.3971 90.6793 19.5818 85.9631 12.9038C81.0105 5.89088 72.8495 4.02153 67.2977 2.81458C69.5043 8.99071 65.386 18.5435 69.9023 24.1561Z" fill="#2CA770"/>
<path d="M66.5857 40.3378C71.0556 39.5953 73.9261 35.6794 78.7868 32.5075C74.1323 31.1079 70.5326 27.4898 65.4182 28.0116C60.0474 28.5595 56.4928 32.4684 54.1101 35.1477C58.1714 35.8505 62.1158 41.0803 66.5857 40.3378Z" fill="#2CA770"/>
<path d="M89.2435 52.1731C92.3209 53.5343 95.6908 52.2722 99.9954 52.2837C97.6713 49.5166 96.9014 45.8015 93.5131 44.0405C89.9548 42.1911 86.1629 43.17 83.5972 43.8628C85.8351 45.9552 86.1661 50.8119 89.2435 52.1731Z" fill="#2CA770"/>
<path d="M167.225 78.2536C164.953 82.8217 166.614 88.0209 166.288 94.5461C170.624 91.2208 176.277 90.3197 179.173 85.3089C182.214 80.0469 181.011 74.2281 180.151 70.2887C176.838 73.5316 169.496 73.6856 167.225 78.2536Z" fill="#2CA770"/>
<path d="M179.042 115.011C174.213 113.4 169.316 115.784 162.83 116.383C166.725 120.218 168.413 125.704 173.767 127.872C179.39 130.149 184.963 128.132 188.73 126.721C185.061 123.889 183.872 116.621 179.042 115.011Z" fill="#2CA770"/>
<path d="M48.8268 65.7376C51.5075 70.0469 56.7677 71.3394 62.1157 75.0114C61.5599 69.5925 63.7392 64.3144 61.0092 59.2434C58.1423 53.918 52.5961 51.9142 48.8175 50.5964C49.8358 55.1023 46.146 61.4284 48.8268 65.7376Z" fill="#2CA770"/>
<path d="M54.479 134.191C54.5139 130.946 52.1258 128.436 50.5064 124.614C48.9472 127.722 45.964 129.811 45.6943 133.483C45.4111 137.339 47.7093 140.331 49.2912 142.344C50.2884 139.568 54.4441 137.436 54.479 134.191Z" fill="#2CA770"/>
<path d="M36.1172 143.097C40.4047 138.836 41.4063 132.592 44.8643 125.547C39.2931 127.767 33.693 126.898 28.6204 131.439C23.2935 136.207 21.5742 142.98 20.4518 147.581C25.0489 145.115 31.8297 147.358 36.1172 143.097Z" fill="#2CA770"/>
<path d="M140.015 107.083C137.524 105.013 134.076 105.292 130.096 104.147C131.522 107.32 131.261 110.96 133.935 113.482C136.742 116.131 140.507 116.224 143.062 116.26C141.54 113.734 142.506 109.153 140.015 107.083Z" fill="#2CA770"/>
<path d="M143.172 87.8617C146.069 84.1992 151.014 83.564 156.285 80.7616C155.216 85.66 156.664 90.7141 153.643 95.0683C150.471 99.6409 145.191 100.897 141.599 101.709C142.996 97.694 140.275 91.5243 143.172 87.8617Z" fill="#2CA770"/>
<path d="M126.699 44.1034C124.641 46.6233 124.573 47.8675 124.198 50.7533C128.701 49.4986 132.328 48.2968 134.205 46.6128C136.581 44.4798 137.707 42.9742 137.082 38.0809C134.205 41.7195 129.427 40.764 126.699 44.1034Z" fill="#2CA770"/>
<path d="M111.725 44.5174C109.946 41.8242 109.965 40.5536 109.802 37.593C113.978 39.1509 117.328 40.6003 118.991 42.4314C121.096 44.7506 122.061 46.3533 121.143 51.2948C118.664 47.4119 114.082 48.0864 111.725 44.5174Z" fill="#2CA770"/>
<path d="M168.447 105.465C165.124 108.958 165.014 110.682 164.408 114.682C171.679 112.943 177.536 111.277 180.565 108.943C184.402 105.987 186.22 103.9 185.211 97.1176C180.565 102.161 172.851 100.837 168.447 105.465Z" fill="#2CA770"/>
<path d="M161.552 135.077C163.673 138.692 165.092 139.211 168.299 140.704C168.609 134.258 168.636 128.999 167.415 125.914C165.869 122.006 164.561 119.985 158.627 119.138C161.727 124.232 158.741 130.286 161.552 135.077Z" fill="#2CA770"/>
<path d="M31.1727 114.714C26.1552 115.119 24.5909 116.363 20.7537 119.009C26.6022 122.637 31.5436 125.357 35.3791 125.637C40.2371 125.993 43.135 125.636 48.4264 119.76C41.2728 120.45 37.8217 114.176 31.1727 114.714Z" fill="#2CA770"/>
<path d="M92.469 24.2409C91.2835 29.0352 91.9965 30.7841 93.3534 34.9818C98.7083 30.3258 102.898 26.3133 104.377 22.7826C106.249 18.3107 106.815 15.5137 102.786 9.21878C101.204 16.0797 94.04 17.8874 92.469 24.2409Z" fill="#2CA770"/>
<path d="M45.0575 102.54C47.8521 105.782 49.1854 109.566 49.1854 112.703C47.6843 112.075 40.4294 110.129 38.5531 107.935C35.6563 104.547 37.8026 103.167 34.4253 96.7681C38.9283 97.3955 41.9696 98.9575 45.0575 102.54Z" fill="#2CA770"/>
<path d="M52.6756 73.5992C57.6616 76.2227 61.3917 80.2935 63.2858 84.2452C61.2803 84.2393 52.2429 85.5795 48.8844 83.7955C43.6992 81.0411 45.192 78.1812 37.668 71.8849C42.9269 70.3217 47.1659 70.7001 52.6756 73.5992Z" fill="#2CA770"/>
<path d="M128.567 28.3931C128.524 34.8302 126.343 40.6747 123.315 44.5621C122.263 42.4851 116.128 33.7921 116.174 29.448C116.245 22.741 119.948 22.8894 122.395 12.035C126.764 16.7112 128.615 21.2801 128.567 28.3931Z" fill="#2CA770"/>
<path d="M155.508 52.5995C154.948 59.0122 152.304 64.6613 148.973 68.2912C148.091 66.1358 142.675 56.9751 143.07 52.6488C143.68 45.9694 147.359 46.4167 150.671 35.7956C154.649 40.8097 156.127 45.5134 155.508 52.5995Z" fill="#2CA770"/>
<path d="M103.66 93.2694C104.973 96.8459 104.919 100.448 103.965 103.105C102.921 102.128 97.5441 98.3234 96.6679 95.9069C95.315 92.176 97.5003 91.6451 96.6677 85.221C100.182 87.0905 102.208 89.3173 103.66 93.2694Z" fill="#2CA770"/>
<path d="M66.575 48.3188C63.9524 54.211 63.4846 60.5019 64.5829 65.3795C66.3817 63.9467 75.4558 58.7106 77.2104 54.7266C79.9194 48.5756 76.5502 47.0841 78.8511 36.1051C73.0156 38.4524 69.4731 41.8078 66.575 48.3188Z" fill="#2CA770"/>
<path d="M148.83 107.875C152.25 107.757 155.456 106.544 157.662 104.921C156.608 104.408 152.281 101.367 149.972 101.455C146.407 101.592 146.312 103.503 140.434 104.929C142.712 107.117 145.051 108.006 148.83 107.875Z" fill="#2CA770"/>
<path d="M13.0675 126.081C18.9885 123.617 25.0393 123.467 29.5611 124.904C27.9865 126.738 21.9419 136.099 17.9406 137.746C11.763 140.287 10.7324 136.621 0 138.462C2.91501 132.386 6.52467 128.803 13.0675 126.081Z" fill="#2CA770"/>
</svg>
